<svg xmlns="http://www.w3.org/2000/svg" viewBox="0 0 84 81.99"><defs><style>.cls-1{fill:#d62952;}.cls-2{fill:#545354;}.cls-3{fill:#a0183f;}</style></defs><title>family</title><g id="Layer_2" data-name="Layer 2"><g id="Layer_1-2" data-name="Layer 1"><path class="cls-1" d="M42,76H0V32a2,2,0,0,1,2-2h8a2,2,0,0,1,2,2V64H42"/><path class="cls-1" d="M42,76H84V32a2,2,0,0,0-2-2H74a2,2,0,0,0-2,2V64H42"/><rect class="cls-2" x="7" y="77.99" width="8.5" height="4" rx="2" ry="2"/><rect class="cls-2" x="65" y="77.99" width="8.5" height="4" rx="2" ry="2"/><rect class="cls-3" x="15.5" y="49.49" width="51" height="10"/><path class="cls-1" d="M40.76,0S10.92.28,5.21,12.89l.29,13.6s10-2,10,8v11h25"/><path class="cls-1" d="M40.21,0S70,.28,75.76,12.89l-.29,13.6s-10-2-10,8v11h-25"/></g></g></svg>