<svg xmlns="http://www.w3.org/2000/svg" viewBox="0 0 245 207.83"><defs><style>.cls-1{fill:#a02525;}.cls-2{fill:#fcfcfc;}</style></defs><title>flats_1</title><g id="Layer_2" data-name="Layer 2"><g id="Layer_1-2" data-name="Layer 1"><rect class="cls-1" y="0.17" width="104" height="207.66"/><rect class="cls-1" x="155.5" y="48" width="89.5" height="159"/><rect class="cls-1" x="102" y="72.5" width="58" height="20"/><rect class="cls-2" x="25" y="31.5" width="24" height="24"/><rect class="cls-2" x="58" y="31.5" width="24" height="24"/><rect class="cls-2" x="25" y="68.5" width="24" height="24"/><rect class="cls-2" x="58" y="68.5" width="24" height="24"/><rect class="cls-2" x="25" y="105.5" width="24" height="24"/><rect class="cls-2" x="58" y="105.5" width="24" height="24"/><rect class="cls-2" x="25" y="142.5" width="24" height="24"/><rect class="cls-2" x="58" y="142.5" width="24" height="24"/><rect class="cls-2" x="171" y="70.5" width="24" height="24"/><rect class="cls-2" x="204" y="70.5" width="24" height="24"/><rect class="cls-2" x="171" y="107.5" width="24" height="24"/><rect class="cls-2" x="204" y="107.5" width="24" height="24"/><rect class="cls-2" x="171" y="144.5" width="24" height="24"/><rect class="cls-2" x="204" y="144.5" width="24" height="24"/><rect class="cls-1" x="192.25" y="37.5" width="19" height="15"/><rect class="cls-1" x="201.25" width="1" height="46"/></g></g></svg>