<svg xmlns="http://www.w3.org/2000/svg" viewBox="0 0 126.14 102"><defs><style>.cls-1{fill:#00a99d;}.cls-2{fill:#fff;stroke:#00a99d;stroke-miterlimit:10;}</style></defs><title>guest</title><g id="Layer_2" data-name="Layer 2"><g id="Layer_1-2" data-name="Layer 1"><polygon class="cls-1" points="112.56 45.22 110.18 45.22 110.18 0 105.08 0 105.08 4.42 18.38 4.42 18.38 0 30.23 21 13.62 45.22 11.58 45.22 1.72 54.4 122.08 54.4 112.56 45.22"/><polygon class="cls-1" points="12.24 45.22 14.62 45.22 14.62 0 19.72 0 19.72 4.42 106.42 4.42 106.42 0 94.57 21 111.18 45.22 113.22 45.22 123.08 54.4 2.72 54.4 12.24 45.22"/><polygon class="cls-2" points="26.86 32.98 20.74 45.9 57.8 45.9 55.42 32.98 26.86 32.98"/><polygon class="cls-2" points="70.04 32.98 68 45.9 104.72 45.9 98.26 32.98 70.04 32.98"/><polygon class="cls-1" points="0 60.86 0 91.8 8.5 91.8 8.5 102 17.68 102 17.68 91.46 103.36 91.8 103.36 102 113.9 102 113.9 91.46 126.14 91.46 126.14 60.86 0 60.86"/></g></g></svg>