<svg xmlns="http://www.w3.org/2000/svg" viewBox="0 0 396.86 213"><defs><style>.cls-1{fill:#7141f7;}.cls-2{fill:#6b6a6d;}</style></defs><title>hall</title><g id="Layer_2" data-name="Layer 2"><g id="Layer_1-2" data-name="Layer 1"><rect class="cls-1" x="17.43" width="96" height="96" rx="12" ry="12"/><rect class="cls-1" x="150.43" width="96" height="96" rx="12" ry="12"/><rect class="cls-1" x="280.43" width="96" height="96" rx="12" ry="12"/><rect class="cls-2" x="11.67" y="127.18" width="11.09" height="87.65" rx="5.54" ry="5.54" transform="translate(52.96 2.89) rotate(17.75)"/><rect class="cls-2" x="149.67" y="127.18" width="11.09" height="87.65" rx="5.54" ry="5.54" transform="translate(59.53 -39.18) rotate(17.75)"/><rect class="cls-2" x="279.67" y="127.18" width="11.09" height="87.65" rx="5.54" ry="5.54" transform="matrix(0.95, 0.3, -0.3, 0.95, 65.72, -78.82)"/><rect class="cls-2" x="108.1" y="127.18" width="11.09" height="87.65" rx="5.54" ry="5.54" transform="translate(274.02 299.21) rotate(162.25)"/><rect class="cls-2" x="241.1" y="127.18" width="11.09" height="87.65" rx="5.54" ry="5.54" transform="translate(533.68 258.66) rotate(162.25)"/><rect class="cls-2" x="374.1" y="127.18" width="11.09" height="87.65" rx="5.54" ry="5.54" transform="translate(793.35 218.11) rotate(162.25)"/><rect class="cls-1" x="5.43" y="116" width="118" height="27" rx="12" ry="12"/><rect class="cls-1" x="138.43" y="116" width="118" height="27" rx="12" ry="12"/><rect class="cls-1" x="268.43" y="116" width="118" height="27" rx="12" ry="12"/></g></g></svg>