<svg xmlns="http://www.w3.org/2000/svg" viewBox="0 0 141 131.83"><defs><style>.cls-1{fill:#ccc;}.cls-2,.cls-3,.cls-4{fill:none;stroke-miterlimit:10;}.cls-2{stroke:#aaa;}.cls-3{stroke:#134089;}.cls-3,.cls-4{stroke-width:2px;}.cls-4{stroke:#d1cfcf;}</style></defs><title>hoop</title><g id="Layer_2" data-name="Layer 2"><g id="Layer_1-2" data-name="Layer 1"><rect class="cls-1" x="13.5" y="9.21" width="114" height="67.59" rx="12" ry="12"/><rect class="cls-2" x="0.5" y="0.5" width="140" height="83" rx="12" ry="12"/><rect class="cls-3" x="45.5" y="31.5" width="50" height="36"/><path class="cls-4" d="M46,76.5l39,51c-2-15,9-47,9-47l-36,47c5-21-13-50-13-50"/><path class="cls-4" d="M58.54,114.08,77,91.5s5.13-11,4.06-15"/><path class="cls-4" d="M58.54,76.5s2.72,8.58-4.91,18.79"/><path class="cls-4" d="M60.36,76.5S64.09,93,85.55,115.24"/><line class="cls-4" x1="68" y1="127.5" x2="87.97" y2="103.24"/><polyline class="cls-4" points="56.68 104.54 76 127.5 85.55 118.18"/><path class="cls-4" d="M73,76.79s-.16,14.79,13.94,27.75"/><path class="cls-4" d="M70.5,76.79S69.62,91,56.31,103.24"/><path class="cls-4" d="M83.57,76.5s.77,17.36,6.1,20.18"/><rect class="cls-3" x="38.5" y="70.5" width="62" height="6" rx="3" ry="3"/></g></g></svg>