<svg xmlns="http://www.w3.org/2000/svg" viewBox="0 0 92.79 91.76"><defs><style>.cls-1{fill:#bf3439;}</style></defs><title>jog</title><g id="Layer_2" data-name="Layer 2"><g id="Layer_1-2" data-name="Layer 1"><path class="cls-1" d="M71.28,32.83c-1.29,1-3.17.38-4.8.55A6.37,6.37,0,0,0,61.76,37a18.81,18.81,0,0,0-1.53,6l14.87,9.4A16.62,16.62,0,0,1,79.5,56a5.63,5.63,0,0,1,1.12,5.31,8.31,8.31,0,0,1-1.5,2.27L65.66,79.72a6.71,6.71,0,0,0,2.91,7.18c1.15.71,2.71,1.31,2.83,2.65a2.26,2.26,0,0,1-2,2.18,6.58,6.58,0,0,1-3.19-.6L57,87.75a2.82,2.82,0,0,1-1.72-1.2,2.17,2.17,0,0,1-.17-.86C55,81.49,59.73,79,62,75.52c1.32-2.05,1.8-4.53,2.77-6.77,1.45-3.37,3.95-6.16,6.41-8.88l-5.12-2.68c-3.78-2-7.9-4-12.11-3.32-4.76.79-8.18,4.81-11.76,8A43.61,43.61,0,0,1,31.39,69c-3.58,1.66-7.37,2.82-10.9,4.57s-6.89,4.18-8.76,7.65a6.71,6.71,0,0,1-2,2.8c-1.27.78-3.07.42-4.21,1.39-.9.77-1,2.07-1.49,3.17s-1.72,2.13-2.72,1.49a2.17,2.17,0,0,1-.77-1.16C-1.4,83.5,2.57,78,3.75,72.34l6.56,1.29a3.58,3.58,0,0,0,2.27-.05A3.85,3.85,0,0,0,14,72,24.39,24.39,0,0,1,28.69,61.37a17,17,0,0,0,3.42-1,10.2,10.2,0,0,0,2.61-2,36.59,36.59,0,0,0,8.46-13.94,30.41,30.41,0,0,1,1.61-4,28.83,28.83,0,0,1,4.1-5.28C54,29.44,58.08,22.94,62.17,16.47c-3.75-1.53-7.74,1.71-10,5.09a31.94,31.94,0,0,0-3.71,7.72c-.5,1.53-1.46,3.49-3,3.15-1-1.82-.37-4.09.56-5.92s2.21-3.55,2.66-5.57c.39-1.73.14-3.59.77-5.25,1.16-3,4.77-4.27,8-4.79a47.33,47.33,0,0,1,9.42-.58,3.79,3.79,0,0,1,2.6.79c.69.68.8,1.8,1.51,2.46,1.19,1.1,3.3.11,3.86-1.41s.08-3.2-.41-4.75a31.66,31.66,0,0,1-16.2,2.81,4,4,0,0,1-2.55-.9,3.92,3.92,0,0,1-.85-1.81A26.84,26.84,0,0,1,54,0c1.49,2.63,3.49,5.59,6.51,5.69,1.94.07,3.66-1.1,5.42-1.93C69.15,2.22,73.52,2,76,4.67a4.75,4.75,0,0,1,5.8-2.4,7.13,7.13,0,0,1,4.35,5,14.9,14.9,0,0,1-.08,6.85A5.9,5.9,0,0,1,84.88,17a2.29,2.29,0,0,1-2.79.6c-.42-.26-.72-.71-1.19-.86-.78-.25-1.52.4-2.08,1l4.63,16a9.17,9.17,0,0,0,4-.9,3.14,3.14,0,0,0,1.63-3.49,10.73,10.73,0,0,1-.75-1.73c-.2-1.29,1.43-2.33,2.66-1.88A3.08,3.08,0,0,1,92.78,29a7.2,7.2,0,0,1-1.63,3.51A23.56,23.56,0,0,1,83,39.29a1.89,1.89,0,0,1-1.84.2,1.94,1.94,0,0,1-.64-1.07l-2.93-8.77c-.59-1.76-2.51-5.87-4.47-3.41C71.69,28.08,73.34,31.22,71.28,32.83Z"/></g></g></svg>