<svg xmlns="http://www.w3.org/2000/svg" viewBox="0 0 92.79 85"><defs><style>.cls-1{fill:#bf3439;}</style></defs><title>jog_1</title><g id="Layer_2" data-name="Layer 2"><g id="Layer_1-2" data-name="Layer 1"><path class="cls-1" d="M71.28,30.41c-1.29.94-3.17.35-4.8.51a6.32,6.32,0,0,0-4.72,3.38,16.4,16.4,0,0,0-1.53,5.56L75.1,48.57a16.45,16.45,0,0,1,4.4,3.28,4.93,4.93,0,0,1,1.12,4.92,7.68,7.68,0,0,1-1.5,2.1l-13.46,15a6,6,0,0,0,2.91,6.65c1.15.65,2.71,1.21,2.83,2.46.1,1-1,1.86-2,2a7,7,0,0,1-3.19-.56L57,81.28a2.82,2.82,0,0,1-1.72-1.12,1.89,1.89,0,0,1-.17-.8C55,75.49,59.73,73.22,62,70c1.32-1.9,1.8-4.19,2.77-6.27,1.45-3.12,3.95-5.7,6.41-8.23L66.05,53c-3.78-1.83-7.9-3.73-12.11-3.08-4.76.73-8.18,4.45-11.76,7.44a44.06,44.06,0,0,1-10.79,6.59c-3.58,1.53-7.37,2.61-10.9,4.23S13.59,72,11.72,75.24a6.26,6.26,0,0,1-2,2.6c-1.27.72-3.07.39-4.21,1.29-.9.71-1,1.92-1.49,2.93s-1.72,2-2.72,1.38a2,2,0,0,1-.77-1.08C-1.4,77.35,2.57,72.21,3.75,67l6.56,1.19a3.85,3.85,0,0,0,2.27,0A3.67,3.67,0,0,0,14,66.71a24.38,24.38,0,0,1,14.73-9.86,18.08,18.08,0,0,0,3.42-.93,10.18,10.18,0,0,0,2.61-1.82,33.55,33.55,0,0,0,8.46-12.91,27,27,0,0,1,1.61-3.71,27.08,27.08,0,0,1,4.1-4.89C54,27.27,58.08,21.25,62.17,15.26c-3.75-1.42-7.74,1.58-10,4.72a28.7,28.7,0,0,0-3.71,7.15c-.5,1.42-1.46,3.23-3,2.92-1-1.69-.37-3.78.56-5.49s2.21-3.29,2.66-5.16c.39-1.6.14-3.33.77-4.86,1.16-2.82,4.77-4,8-4.44a51,51,0,0,1,9.42-.54,4,4,0,0,1,2.6.73c.69.63.8,1.67,1.51,2.27,1.19,1,3.3.1,3.86-1.3s.08-3-.41-4.4a33.89,33.89,0,0,1-16.2,2.6,4.19,4.19,0,0,1-2.55-.84,3.52,3.52,0,0,1-.85-1.68A23.12,23.12,0,0,1,54,0c1.49,2.43,3.49,5.17,6.51,5.27,1.94.06,3.66-1,5.42-1.79,3.27-1.43,7.64-1.62,10.1.84.85-2,3.61-2.89,5.8-2.22a6.79,6.79,0,0,1,4.35,4.64,12.81,12.81,0,0,1-.08,6.35,5.26,5.26,0,0,1-1.17,2.62,2.41,2.41,0,0,1-2.79.56c-.42-.24-.72-.66-1.19-.8-.78-.23-1.52.37-2.08.93l4.63,14.86a9.78,9.78,0,0,0,4-.83c1.21-.65,2.09-2,1.63-3.24a9.58,9.58,0,0,1-.75-1.6c-.2-1.2,1.43-2.16,2.66-1.74a2.81,2.81,0,0,1,1.73,3,6.46,6.46,0,0,1-1.63,3.25A23.22,23.22,0,0,1,83,36.39a2,2,0,0,1-1.84.18,1.78,1.78,0,0,1-.64-1l-2.93-8.12C77,25.84,75.11,22,73.15,24.31,71.69,26,73.34,28.92,71.28,30.41Z"/></g></g></svg>