<svg xmlns="http://www.w3.org/2000/svg" viewBox="0 0 175.92 125.5"><defs><style>.cls-1{fill:#b90e21;}.cls-2{fill:none;stroke:#52279a;stroke-miterlimit:10;stroke-width:5px;}</style></defs><title>play</title><g id="Layer_2" data-name="Layer 2"><g id="Layer_1-2" data-name="Layer 1"><path class="cls-1" d="M3.51,125.5H14.06L52.71,37.64H73.8L137.06,115s7,10.54,28.11,10.54h10.54c0-1.7.81-10.4-.79-10.55-4.87-.46-9.82-.51-14.53-1.81-10.14-2.8-14.34-10.47-20.62-17.93-2.74-3.25-5.51-6.48-8.26-9.72L111.59,62.05,87.86,34.13S84.34,23.59,66.77,23.59H42.17L38.66,37.64,42.17,51.7H31.63l3.51,10.54H24.6l7,17.57H21.09L24.6,93.87H14.06l3.51,14.06H7L10.54,122H0v3.51Z"/><path class="cls-2" d="M70.2,23.73l.09-14.21s-3.51-7-14.06-7H45.69S38.66,6,31.63,20.07,3.51,83.33,3.51,83.33s0,7,10.54,7H28.11"/></g></g></svg>