<svg xmlns="http://www.w3.org/2000/svg" viewBox="0 0 287.8 203.72"><defs><style>.cls-1{fill:#b90e21;}.cls-2{fill:none;stroke:#52279a;stroke-miterlimit:10;stroke-width:5px;}</style></defs><title>play_1</title><g id="Layer_2" data-name="Layer 2"><g id="Layer_1-2" data-name="Layer 1"><path class="cls-1" d="M5.75,203.72H23L86.24,60h34.5L224.22,186.48s11.5,17.25,46,17.25h17.25c0-2.78,1.32-17-1.29-17.26-8-.75-16.06-.84-23.77-3-16.6-4.58-23.46-17.13-33.74-29.33-4.49-5.32-9-10.61-13.52-15.91L182.56,99.92,143.73,54.24S138,37,109.24,37H69L63.24,60,69,83H51.74l5.75,17.25H40.24L51.74,129H34.5l5.75,23H23l5.75,23H11.5l5.75,23H0v5.75Z"/><path class="cls-2" d="M114.84,37.24,115,14S109.24,2.5,92,2.5H74.74s-11.5,5.75-23,28.75-46,103.49-46,103.49,0,11.5,17.25,11.5H46"/></g></g></svg>