<svg xmlns="http://www.w3.org/2000/svg" viewBox="0 0 100.77 96"><defs><style>.cls-1{fill:#9f9fa0;}.cls-2{fill:#28a0f9;}</style></defs><title>rain</title><g id="Layer_2" data-name="Layer 2"><g id="Layer_1-2" data-name="Layer 1"><path class="cls-1" d="M29.17,10.83A60.59,60.59,0,0,1,44,1.31,10.18,10.18,0,0,1,49.7.08C52.51.53,54.48,3,56.16,5.3,60,2.83,64.93.35,69,2.49c3.84,2,4.85,7.14,8.08,10a1.93,1.93,0,0,0,1.23.61,2.22,2.22,0,0,0,1.1-.43A31.08,31.08,0,0,1,92,8.39a5.06,5.06,0,0,1,2.4.14,5,5,0,0,1,2.23,2.17,26.6,26.6,0,0,1,3.82,17.95c-3.3-.34-5.35,3.44-8.23,5.07-3.62,2-8.11.49-12-.84-3-1-6.33-1.84-9.13-.45-.84.41-1.57,1-2.38,1.48a16.39,16.39,0,0,1-6.37,1.85,54.1,54.1,0,0,1-15.13-.23c-3.85-.6-8.13-1.54-11.39.59a8.26,8.26,0,0,1-2.8,1.63,5.83,5.83,0,0,1-2.59-.37,23.2,23.2,0,0,0-12.92.13,26.44,26.44,0,0,1-5.93,1.58C6.83,39.37.86,36.19.13,31.4c-.66-4.34,1.29-8.85,2.26-13C4,11.35,8.8,5.13,16.74,4.7a14.32,14.32,0,0,1,7.13,1.52C24.45,6.51,29.77,10.31,29.17,10.83Z"/><path class="cls-2" d="M16.1,46s-6,8,0,10C16.1,56,22.1,55,16.1,46Z"/><path class="cls-2" d="M60.1,53s-6,8,0,10C60.1,63,66.1,62,60.1,53Z"/><path class="cls-2" d="M98.1,41s-6,8,0,10C98.1,51,104.1,50,98.1,41Z"/><path class="cls-2" d="M76.1,41s-6,8,0,10C76.1,51,82.1,50,76.1,41Z"/><path class="cls-2" d="M84.1,69s-6,8,0,10C84.1,79,90.1,78,84.1,69Z"/><path class="cls-2" d="M53.1,75s-6,8,0,10C53.1,85,59.1,84,53.1,75Z"/><path class="cls-2" d="M63.1,86s-6,8,0,10C63.1,96,69.1,95,63.1,86Z"/><path class="cls-2" d="M21.1,71s-6,8,0,10C21.1,81,27.1,80,21.1,71Z"/><path class="cls-2" d="M38.1,81s-6,8,0,10C38.1,91,44.1,90,38.1,81Z"/><path class="cls-2" d="M73.1,68s-6,8,0,10C73.1,78,79.1,77,73.1,68Z"/><path class="cls-2" d="M42.1,48s-6,8,0,10C42.1,58,48.1,57,42.1,48Z"/><path class="cls-2" d="M30.1,58s-6,8,0,10C30.1,68,36.1,67,30.1,58Z"/></g></g></svg>