<svg xmlns="http://www.w3.org/2000/svg" viewBox="0 0 191.38 169.67"><defs><style>.cls-1{fill:#90f489;}.cls-2{fill:#606060;}</style></defs><title>shuttle</title><g id="Layer_2" data-name="Layer 2"><g id="Layer_1-2" data-name="Layer 1"><path class="cls-1" d="M62,163.1A40,40,0,1,1,18,96.23"/><rect class="cls-2" x="10.45" y="117.3" width="80" height="11" transform="translate(-24.49 232.39) rotate(-123.3)"/><path class="cls-1" d="M77.64,138.41l6.77,10,97.91-19.35s14.61-2.35,6.75-16.43c0,0-9-13.4-23.29-8.13S77.64,138.41,77.64,138.41Z"/><path class="cls-1" d="M63.15,118.1l7.72,10.26,93.32-34.58s6.07-9,1.56-15.72c0,0-7.72-10.26-20.22-8.38Z"/><path class="cls-1" d="M51.53,98.44l6.56,10.95L141.64,60.3s7.44-10.6.26-18.85c0,0-6.77-10-16.8-5.71Z"/><path class="cls-1" d="M37.59,80.15l6.77,10L115.2,30.65s11.87-12.43,1.69-25.15c0,0-6.36-11.85-15.91-.78S37.59,80.15,37.59,80.15Z"/></g></g></svg>