<svg xmlns="http://www.w3.org/2000/svg" viewBox="0 0 102 55"><defs><style>.cls-1{fill:#3c291a;}.cls-2{fill:#785432;}</style></defs><title>sitting</title><g id="Layer_2" data-name="Layer 2"><g id="Layer_1-2" data-name="Layer 1"><rect class="cls-1" x="89" y="29" width="2" height="21" transform="translate(180 79) rotate(-180)"/><rect class="cls-1" x="11" y="28" width="2" height="21"/><rect class="cls-1" x="89" y="1" width="2" height="30"/><rect class="cls-1" x="11" y="1" width="2" height="27"/><rect class="cls-2" y="26" width="102" height="4"/><rect class="cls-2" x="4" width="94" height="3"/><rect class="cls-2" x="4" y="5" width="94" height="3"/><rect class="cls-2" x="4" y="10" width="94" height="3"/><rect class="cls-2" x="4" y="15" width="94" height="3"/><rect class="cls-2" x="4" y="20" width="94" height="3"/><rect class="cls-1" x="5" y="30" width="2" height="25"/><rect class="cls-1" x="95" y="30" width="2" height="25" transform="translate(192 85) rotate(-180)"/><polygon class="cls-1" points="0 26 4 23 98 23 102 26 0 26"/></g></g></svg>