<svg xmlns="http://www.w3.org/2000/svg" viewBox="0 0 686.9 752.15"><defs><style>.cls-1,.cls-3{fill:#c63941;}.cls-2{fill:#464648;}.cls-2,.cls-3,.cls-4,.cls-5,.cls-7{stroke:#000;}.cls-2,.cls-3,.cls-4,.cls-5,.cls-6,.cls-7,.cls-8{stroke-miterlimit:10;}.cls-2,.cls-3,.cls-4,.cls-7{stroke-width:5px;}.cls-4,.cls-5,.cls-6,.cls-8{fill:none;}.cls-5,.cls-8{stroke-width:3px;}.cls-6{stroke:#c63941;stroke-width:10px;}.cls-7{fill:#c2c131;}.cls-8{stroke:#fff;}</style></defs><title>tennis</title><g id="Layer_2" data-name="Layer 2"><g id="Layer_1-2" data-name="Layer 1"><path class="cls-1" d="M203.77,504.11s18.3-1.79,6,10.08-42.12,19.74-42.12,19.74-20.07,5.51.67-15S195,502.12,195,502.12Z"/><polyline class="cls-2" points="140.6 552.48 27.63 693.95 59.3 719.99 175.52 578.63 142.3 551.32"/><path class="cls-3" d="M206.09,506c17.06-14.45,44.33-150,44.33-150l-15.85-53.16c2.86,102-76.18,231.24-76.18,231.24"/><rect class="cls-4" x="138.03" y="543.7" width="57" height="24" transform="translate(390.79 20.68) rotate(39.42)"/><rect class="cls-2" x="6.22" y="701.76" width="51" height="39" rx="7" ry="7" transform="translate(465.25 143.96) rotate(39.42)"/><line class="cls-5" x1="584.73" y1="39.92" x2="284.74" y2="405.62"/><line class="cls-5" x1="311.09" y1="420.81" x2="606.07" y2="62"/><line class="cls-5" x1="558.95" y1="23.26" x2="264.6" y2="381.3"/><line class="cls-5" x1="533.01" y1="12.29" x2="251.68" y2="354.5"/><polyline class="cls-5" points="631.68 120.6 495.73 8.83 241.71 317.81 377.66 429.58 631.68 120.6"/><polygon class="cls-5" points="418.75 428.41 639.12 160.37 454.27 13.59 236.45 278.54 418.75 428.41"/><line class="cls-5" x1="403.16" y1="28.52" x2="241.22" y2="225.5"/><line class="cls-5" x1="623.39" y1="86.59" x2="339.2" y2="432.27"/><line class="cls-5" x1="640.38" y1="206.07" x2="462.57" y2="422.36"/><path class="cls-4" d="M544.71,365"/><path class="cls-4" d="M600.59,297"/><path class="cls-4" d="M276.66,144.6"/><path class="cls-4" d="M332.55,76.62"/><line class="cls-5" x1="424.36" y1="20.06" x2="641.81" y2="198.83"/><line class="cls-5" x1="397.25" y1="35.7" x2="625.91" y2="223.68"/><line class="cls-5" x1="368.71" y1="46.81" x2="624.78" y2="257.32"/><line class="cls-5" x1="339.53" y1="68.13" x2="607.58" y2="288.49"/><line class="cls-5" x1="322.62" y1="88.7" x2="596.22" y2="314.11"/><line class="cls-5" x1="300.49" y1="108.53" x2="577.42" y2="336.19"/><line class="cls-5" x1="286" y1="133.24" x2="560.03" y2="358.14"/><line class="cls-5" x1="266.5" y1="156.96" x2="534.55" y2="377.32"/><line class="cls-5" x1="255.04" y1="185.08" x2="511.88" y2="396.23"/><line class="cls-5" x1="248.44" y1="216.71" x2="477.1" y2="404.69"/><line class="cls-5" x1="236.38" y1="248.71" x2="453.06" y2="426.84"/><ellipse class="cls-6" cx="439.54" cy="222.84" rx="239.5" ry="181" transform="translate(-11.73 420.85) rotate(-50.58)"/><path class="cls-3" d="M158.39,534.12"/><path class="cls-3" d="M158.39,534.12l31,25.51S300.76,457,401.42,440.05l-55.08-5.15s-127.69,53-138.57,72.5"/><path class="cls-3" d="M208.63,506.1"/><circle class="cls-7" cx="590.9" cy="314.1" r="93.5"/><path class="cls-8" d="M507.47,308.35c5.75-14.38,12-22.2,26.06-28,16.5-6.8,32.14-1.13,44.38,11,17,16.88,27.22,38.81,43.13,56.51,6.77,7.53,15.48,14.88,26,15.5,6.71.4,10.52,3.79,15.76-.42"/></g></g></svg>